<svg width="144" height="144" viewBox="0 0 144 144" fill="none" xmlns="http://www.w3.org/2000/svg">
<path d="M137.291 78.0092H125.382C122.866 78.0092 120.451 77.0093 118.671 75.2293C116.891 73.4493 115.891 71.0347 115.891 68.5184V63.6635C115.713 62.4973 115.124 61.4332 114.231 60.663C113.337 59.8928 112.198 59.4674 111.018 59.4635L75.9095 59.3545H68.0005C65.7005 59.2501 63.4769 58.503 61.5805 57.1983C59.6842 55.8934 58.1914 54.083 57.2733 51.9727C57.0733 51.4636 56.8733 50.9545 56.7278 50.4454C56.2147 48.612 56.1325 46.6847 56.4878 44.8144C56.8431 42.944 57.6262 41.1811 58.7751 39.6635C59.926 38.1459 61.4096 36.9148 63.115 36.0664C64.8187 35.2181 66.6968 34.7752 68.6005 34.7728H106.637C108.955 34.7472 111.231 35.3793 113.204 36.5957C115.177 37.8122 116.764 39.5631 117.782 41.6455C118.326 42.8126 119.191 43.8006 120.277 44.4929C121.362 45.1855 122.622 45.5536 123.909 45.5545H136.364C137.42 45.566 138.465 45.3282 139.413 44.8607C140.36 44.3933 141.184 43.7091 141.818 42.8636C142.444 42.058 142.873 41.1177 143.073 40.1171C143.271 39.1168 143.235 38.0837 142.964 37.1001C140.773 29.1808 136.044 22.2 129.5 17.2302C122.957 12.2604 114.962 9.57658 106.746 9.59113H64.0369C59.2078 9.56931 54.4465 10.7151 50.1568 12.9313C45.8671 15.1475 42.1768 18.368 39.4006 22.3183C33.7739 29.9425 30.8558 39.2279 31.1098 48.7V55.2818C31.1147 57.0772 31.8312 58.7975 33.1025 60.0654C34.3739 61.3333 36.0961 62.0454 37.8916 62.0454H50.0006C52.5176 62.0454 54.9318 63.0453 56.7116 64.8252C58.4914 66.6057 59.4914 69.0184 59.4914 71.5366V77.5729C59.4914 79.3656 60.2005 81.0838 61.4641 82.3547C62.7296 83.6256 64.4441 84.3456 66.2368 84.3547L106.873 84.4819C109.506 84.5147 112.055 85.4019 114.14 87.0092C116.226 88.6146 117.733 90.8546 118.437 93.391C119.178 96.0328 119.024 98.8455 118 101.391C117.078 103.667 115.497 105.616 113.46 106.987C111.422 108.356 109.02 109.087 106.564 109.082H60.4914C59.366 109.076 58.2896 108.625 57.4947 107.829C56.7009 107.031 56.2551 105.953 56.2551 104.827V101.191C56.2562 99.5455 55.6591 97.9564 54.5755 96.7182C53.4916 95.48 51.9949 94.6801 50.3642 94.4637H36.4916C34.3547 94.4673 32.279 93.7492 30.6007 92.4273L30.0734 91.9546L29.928 91.8273L29.5098 91.391L29.328 91.191L28.9825 90.7546L28.7643 90.4819L28.4916 90.0637C28.4183 89.9583 28.3516 89.8492 28.2916 89.7364L28.0553 89.3183L27.8734 88.9365L27.6916 88.5365C27.6916 88.391 27.5825 88.2455 27.5462 88.1183L27.4007 87.7001C27.4007 87.5365 27.4007 87.3728 27.2734 87.2274V87.1001C27.2653 87.0092 27.2653 86.9183 27.2734 86.8274C27.2734 86.6274 27.2734 86.4274 27.2734 86.2274C27.2734 86.0274 27.2734 85.991 27.2734 85.9183C27.2554 85.6092 27.2554 85.3001 27.2734 84.991V72.5002C27.2687 70.7038 26.552 68.9838 25.2807 67.7166C24.0095 66.4475 22.2871 65.7362 20.4917 65.7362H6.67357C5.78303 65.7504 4.90376 65.94 4.0865 66.2948C3.26905 66.6475 2.52941 67.1602 1.90977 67.8002C1.29014 68.4402 0.802702 69.1948 0.475067 70.0238C0.147615 70.8511 -0.013481 71.7366 0.000882503 72.6275V86.191C0.000882503 87.9855 0.712873 89.7092 1.98086 90.9801C3.24868 92.251 4.96904 92.9673 6.76448 92.9728H22.0189C24.0664 92.9783 26.0569 93.6455 27.6949 94.8746C29.3327 96.1019 30.5305 97.8273 31.1098 99.7909V99.9728V104.973C31.1145 112.774 34.2149 120.256 39.7303 125.774C45.2457 131.294 52.7255 134.4 60.5278 134.409H105.637C125.636 134.409 142.4 119.318 144 100.045V84.8456C143.998 83.0456 143.285 81.322 142.018 80.0456C140.775 78.7674 139.075 78.0347 137.291 78.0092Z" fill="#77C045"/>
</svg>
